<svg width="40" height="40" fill="none" xmlns="http://www.w3.org/2000/svg"><rect width="40" height="40" rx="20" fill="#09B451"/><g clip-path="url(#a)"><path d="M9.5 12.242c1.328-.555 3.231-1.154 5.082-1.34 1.995-.2 3.687.095 4.668 1.128v14.62c-1.402-.796-3.18-.905-4.82-.74-1.77.18-3.554.691-4.93 1.216V12.242Zm11.25-.212c.981-1.033 2.673-1.329 4.668-1.128 1.851.186 3.755.785 5.082 1.34v14.884c-1.377-.525-3.16-1.038-4.93-1.215-1.642-.166-3.418-.058-4.82.738V12.03ZM20 10.674c-1.477-1.27-3.62-1.46-5.57-1.264-2.27.23-4.563 1.008-5.99 1.657a.75.75 0 0 0-.44.683v16.5a.75.75 0 0 0 1.06.682c1.323-.6 3.455-1.321 5.52-1.53 2.114-.213 3.885.13 4.835 1.316a.75.75 0 0 0 1.17 0c.95-1.185 2.721-1.529 4.833-1.316 2.067.209 4.2.93 5.521 1.53A.75.75 0 0 0 32 28.25v-16.5a.75.75 0 0 0-.44-.683c-1.427-.65-3.72-1.428-5.99-1.657-1.95-.197-4.093-.006-5.57 1.264Z" fill="#fff"/></g><defs><clipPath id="a"><path fill="#fff" transform="translate(8 8)" d="M0 0h24v24H0z"/></clipPath></defs></svg>