<svg width="40" height="40" fill="none" xmlns="http://www.w3.org/2000/svg"><rect width="40" height="40" rx="20" fill="#09B451"/><g clip-path="url(#a)"><path d="M18.543 31.91c-2.14-.277-4.344-1.195-5.95-2.48-3.613-2.883-5.253-7.438-4.315-11.961.402-1.953 1.449-4.008 2.789-5.489a11.661 11.661 0 0 1 3.508-2.687c1.765-.895 3.453-1.297 5.445-1.297 1.429 0 2.578.188 3.894.637a12.01 12.01 0 0 1 7.461 7.457 12.18 12.18 0 0 1 .383 6.434c-.36 1.719-1.286 3.652-2.426 5.05-.469.578-1.547 1.61-2.113 2.027a12.158 12.158 0 0 1-5.781 2.309c-.617.078-2.297.074-2.894 0h-.001Zm3.27-1.003a11.178 11.178 0 0 0 7.254-4.536c2.027-2.848 2.57-6.668 1.425-10-.269-.781-.937-2.085-1.425-2.773-.543-.77-1.887-2.117-2.66-2.66-.75-.531-2.028-1.176-2.9-1.461a11.065 11.065 0 0 0-9.5 1.211c-1.309.86-2.428 1.98-3.288 3.289a11.058 11.058 0 0 0-1.211 9.495c.288.871.933 2.153 1.46 2.903.547.77 1.891 2.117 2.66 2.66.692.485 1.993 1.152 2.774 1.426 1.74.59 3.598.744 5.41.446Zm-4.157-4.024a4.222 4.222 0 0 1-1.581-.578c-.434-.278-3.708-3.485-3.867-3.786-.184-.343.136-.969.594-1.16l.214-.09-.66-.672c-.363-.371-.707-.766-.762-.875-.129-.25-.133-.786-.012-1.024.051-.098.172-.246.265-.329.161-.132.176-.18.161-.515-.02-.297.008-.415.137-.637a1.15 1.15 0 0 1 .953-.54c.21 0 .265-.026.355-.183.235-.41.906-.559 1.418-.308l.278.132.137-.133c.187-.171.562-.323.808-.323.492 0 1.187.566 1.187.964 0 .476-.433.559-.863.164-.285-.265-.43-.293-.547-.105-.058.09.082.257.922 1.105.84.844.992 1.024.992 1.184a.492.492 0 0 1-.472.465c-.152 0-.402-.22-1.555-1.368-1.176-1.172-1.39-1.36-1.484-1.3-.254.16-.168.277 1.207 1.656.746.75 1.36 1.414 1.36 1.477 0 .129-.118.367-.215.43a.568.568 0 0 1-.255.047c-.16.003-.406-.22-1.714-1.524-1.313-1.305-1.547-1.515-1.641-1.457-.258.164-.172.277 1.325 1.781.816.817 1.5 1.547 1.519 1.625.043.142-.051.387-.175.473a.6.6 0 0 1-.262.047c-.16 0-.363-.175-1.446-1.258-1.043-1.043-1.285-1.257-1.418-1.245-.375.043-.242.21 1.695 2.152 1.68 1.684 1.895 1.922 1.895 2.098a.385.385 0 0 1-.168.329c-.301.238-.418.183-1.176-.551-.387-.371-.785-.73-.891-.797-.191-.117-.676-.168-.766-.075-.031.027.683.782 1.586 1.676 1.504 1.488 1.676 1.641 2.118 1.852a2.957 2.957 0 0 0 2.62.007c1.262-.601 1.962-2.062 1.618-3.387-.172-.66-.387-.976-1.254-1.871-1-1.024-1.231-1.305-1.477-1.797-.274-.55-.39-1.086-.39-1.754 0-.723.073-1.051.394-1.727.304-.644.941-1.32 1.57-1.668 1.235-.688 2.86-.629 4.039.141.235.152 1.082.95 2.137 2.008 1.566 1.57 1.746 1.774 1.746 1.953 0 .426-.348.899-.735.996-.144.039-.117.078.54.746.382.387.738.805.793.934.183.442.1.87-.235 1.223-.172.18-.195.242-.2.601-.003.317-.039.45-.164.63a1.11 1.11 0 0 1-.891.488c-.242 0-.289.023-.41.206-.274.423-.985.57-1.445.297l-.23-.136-.165.16c-.363.348-.95.395-1.394.11-.36-.227-.625-.543-.625-.742 0-.176.254-.465.41-.465.149 0 .348.116.575.328.226.215.422.215.453-.004.015-.117-.172-.34-.93-1.102-.798-.804-.95-.988-.95-1.144a.638.638 0 0 1 .047-.254.517.517 0 0 1 .477-.18c.078.02.738.629 1.46 1.351.727.727 1.364 1.32 1.423 1.32.16 0 .265-.16.191-.297-.035-.062-.649-.691-1.36-1.402-1.113-1.11-1.293-1.317-1.293-1.48a.595.595 0 0 1 .047-.259c.067-.097.301-.214.434-.214.058 0 .793.683 1.633 1.52 1.539 1.53 1.652 1.616 1.813 1.363.058-.094-.153-.332-1.458-1.641-1.348-1.352-1.527-1.555-1.527-1.73a.45.45 0 0 1 .141-.325c.285-.269.371-.214 1.758 1.164 1.313 1.31 1.43 1.395 1.59 1.145.059-.094-.207-.383-1.836-2.016-1.774-1.781-1.902-1.926-1.902-2.133 0-.313.18-.461.527-.437.063.003.438.32.825.699.39.379.812.734.937.789.246.101.531.117.653.039.117-.075-3.126-3.266-3.547-3.489a3.01 3.01 0 0 0-4.16 1.383c-.203.434-.23.563-.258 1.122-.024.527-.004.691.11 1.027.203.598.378.844 1.288 1.774.985 1.008 1.173 1.238 1.422 1.777.704 1.5.407 3.235-.753 4.391-.883.886-2.086 1.3-3.278 1.137Z" fill="#fff"/></g><defs><clipPath id="a"><path fill="#fff" transform="translate(8 8)" d="M0 0h24v24H0z"/></clipPath></defs></svg>