<svg width="132" height="41" fill="none" xmlns="http://www.w3.org/2000/svg"><path d="M4.854 32 .59 10.549h3.904l1.87 10.824c.174 1.137.35 2.285.524 3.444.197 1.137.372 2.274.525 3.411h.131c.24-1.137.47-2.274.689-3.411.24-1.16.48-2.307.721-3.444l2.624-10.824h3.313l2.624 10.824c.24 1.115.481 2.252.722 3.411.24 1.137.48 2.285.721 3.444h.132c.175-1.159.35-2.307.524-3.444.175-1.137.34-2.274.492-3.411l1.87-10.824h3.64L21.517 32h-4.722l-2.657-11.283-.525-2.493c-.153-.83-.295-1.65-.426-2.46h-.132c-.153.81-.317 1.63-.492 2.46-.153.83-.317 1.662-.492 2.493L9.48 32H4.853Zm23.774 0V15.895H32.4V32h-3.772Zm1.902-18.926c-.678 0-1.224-.196-1.64-.59-.415-.394-.623-.918-.623-1.574 0-.635.208-1.148.623-1.542.416-.394.962-.59 1.64-.59.678 0 1.225.196 1.64.59.416.394.624.907.624 1.542 0 .656-.208 1.18-.624 1.574-.415.394-.962.59-1.64.59Zm13.275 19.32c-1.443 0-2.843-.274-4.198-.82a10.958 10.958 0 0 1-3.543-2.33l2.23-2.59a9.894 9.894 0 0 0 2.625 1.77c.984.438 1.968.657 2.952.657 1.224 0 2.154-.252 2.788-.755.634-.503.951-1.17.951-2 0-.897-.317-1.542-.951-1.936-.612-.393-1.4-.798-2.362-1.213l-2.952-1.28c-.7-.305-1.388-.7-2.066-1.18a6.043 6.043 0 0 1-1.64-1.837c-.416-.743-.623-1.64-.623-2.69 0-1.137.306-2.154.918-3.05.634-.918 1.487-1.64 2.558-2.165 1.094-.546 2.34-.82 3.74-.82 1.246 0 2.449.252 3.608.755 1.158.48 2.153 1.137 2.984 1.968l-1.935 2.427a8.69 8.69 0 0 0-2.165-1.345c-.743-.328-1.574-.492-2.492-.492-1.006 0-1.826.23-2.46.689-.613.437-.919 1.05-.919 1.837 0 .546.153 1.006.46 1.377.327.35.754.656 1.279.919.524.24 1.082.48 1.672.721l2.92 1.214c1.268.546 2.306 1.268 3.116 2.165.809.874 1.213 2.088 1.213 3.64 0 1.16-.306 2.22-.918 3.182-.612.962-1.498 1.738-2.657 2.329-1.137.568-2.515.853-4.133.853Zm18.005 0c-1.465 0-2.788-.328-3.969-.984-1.159-.678-2.088-1.64-2.788-2.887-.678-1.268-1.017-2.788-1.017-4.559 0-1.793.372-3.313 1.115-4.56.744-1.267 1.728-2.23 2.952-2.886a8.248 8.248 0 0 1 4.002-1.016c1.028 0 1.924.175 2.69.524a8.68 8.68 0 0 1 2.033 1.28l-1.837 2.46a5.02 5.02 0 0 0-1.279-.853 3.11 3.11 0 0 0-1.41-.328c-1.29 0-2.35.492-3.182 1.476-.809.984-1.213 2.285-1.213 3.903 0 1.596.393 2.886 1.18 3.87.81.984 1.848 1.476 3.116 1.476a4.04 4.04 0 0 0 1.772-.393 8.438 8.438 0 0 0 1.541-.984l1.542 2.493a7.603 7.603 0 0 1-2.493 1.476 8.145 8.145 0 0 1-2.755.492ZM70.237 32V8.843h3.772v5.97l-.132 3.116a12.377 12.377 0 0 1 2.264-1.673c.83-.503 1.793-.754 2.886-.754 1.727 0 2.985.557 3.772 1.672.787 1.116 1.18 2.69 1.18 4.724V32h-3.771v-9.61c0-1.334-.197-2.274-.59-2.821-.394-.547-1.04-.82-1.936-.82-.7 0-1.323.175-1.87.525-.524.328-1.126.82-1.803 1.476V32h-3.772Zm24.882.394a7.468 7.468 0 0 1-3.739-.984c-1.159-.678-2.1-1.64-2.82-2.887-.722-1.268-1.083-2.788-1.083-4.559 0-1.793.36-3.313 1.082-4.56.722-1.267 1.662-2.23 2.821-2.886a7.281 7.281 0 0 1 3.74-1.016 7.34 7.34 0 0 1 3.771 1.016c1.159.656 2.099 1.619 2.821 2.887.722 1.246 1.082 2.766 1.082 4.559 0 1.771-.36 3.29-1.082 4.56-.722 1.246-1.662 2.208-2.82 2.886a7.529 7.529 0 0 1-3.773.984Zm0-3.084c1.181 0 2.11-.492 2.788-1.476.678-.984 1.017-2.274 1.017-3.87 0-1.618-.339-2.92-1.017-3.903-.678-.984-1.607-1.476-2.788-1.476-1.18 0-2.11.492-2.788 1.476-.656.984-.984 2.285-.984 3.903 0 1.596.328 2.886.984 3.87.678.984 1.607 1.476 2.788 1.476Zm18.002 3.084a7.466 7.466 0 0 1-3.739-.984c-1.159-.678-2.1-1.64-2.821-2.887-.722-1.268-1.083-2.788-1.083-4.559 0-1.793.361-3.313 1.083-4.56.721-1.267 1.662-2.23 2.821-2.886a7.28 7.28 0 0 1 3.739-1.016 7.34 7.34 0 0 1 3.772 1.016c1.159.656 2.099 1.619 2.821 2.887.721 1.246 1.082 2.766 1.082 4.559 0 1.771-.361 3.29-1.082 4.56-.722 1.246-1.662 2.208-2.821 2.886a7.529 7.529 0 0 1-3.772.984Zm0-3.084c1.181 0 2.11-.492 2.788-1.476.678-.984 1.017-2.274 1.017-3.87 0-1.618-.339-2.92-1.017-3.903-.678-.984-1.607-1.476-2.788-1.476-1.181 0-2.11.492-2.788 1.476-.656.984-.984 2.285-.984 3.903 0 1.596.328 2.886.984 3.87.678.984 1.607 1.476 2.788 1.476Zm15.082 3.084c-1.334 0-2.285-.405-2.853-1.214-.547-.81-.82-1.913-.82-3.313V8.843h3.772v19.221c0 .46.087.787.262.984.175.175.361.262.558.262h.229c.088-.021.208-.043.361-.065l.492 2.82a4.673 4.673 0 0 1-.853.23 5.914 5.914 0 0 1-1.148.099Z" fill="#000"/><circle cx="95" cy="10" r="3" fill="#09B451"/><circle cx="113" cy="10" r="3" fill="#09B451"/></svg>