<svg width="40" height="40" fill="none" xmlns="http://www.w3.org/2000/svg"><rect width="40" height="40" rx="20" fill="#09B451"/><path d="M28.25 14.25h-16.5a1 1 0 0 0-1 1v9.5a1 1 0 0 0 1 1h16.5a1 1 0 0 0 1-1v-9.5a1 1 0 0 0-1-1Z" stroke="#fff" stroke-linecap="round" stroke-linejoin="round"/><path d="M25.75 28.25v-16.5a1 1 0 0 0-1-1h-9.5a1 1 0 0 0-1 1v16.5a1 1 0 0 0 1 1h9.5a1 1 0 0 0 1-1Z" stroke="#fff" stroke-linecap="round" stroke-linejoin="round"/><path d="m23.065 18.985-2.47 3.275m2.47 0-2.47-3.275m3.13-1.485H19.67l-1.94 5-1.455-3.515" stroke="#fff" stroke-linecap="round" stroke-linejoin="round"/></svg>