<svg width="40" height="40" fill="none" xmlns="http://www.w3.org/2000/svg"><rect width="40" height="40" rx="20" fill="#09B451"/><path d="M22 27c3.771 0 5.657 0 6.828-1.172C30 24.657 30 22.771 30 19c0-3.771 0-5.657-1.172-6.828C27.657 11 25.771 11 22 11h-4c-3.771 0-5.657 0-6.828 1.172C10 13.343 10 15.229 10 19c0 3.771 0 5.657 1.172 6.828.653.654 1.528.943 2.828 1.07" stroke="#F5F5F5" stroke-width="2" stroke-linecap="round" stroke-linejoin="round"/><path d="M20 19v.01M16 19v.01m8-.01v.01M22 27c-1.236 0-2.598.5-3.841 1.145-1.998 1.037-2.997 1.556-3.489 1.225-.492-.33-.399-1.355-.212-3.404l.042-.466" stroke="#F5F5F5" stroke-width="2" stroke-linecap="round"/></svg>